<svg xmlns="http://www.w3.org/2000/svg" viewBox="0 0 100 100" width="100%" height="100%">
  <defs>
    <radialGradient id="emeraldBodyFav" cx="38%" cy="28%" r="72%">
      <stop offset="0%" stop-color="#4ade80" />
      <stop offset="35%" stop-color="#22c55e" />
      <stop offset="70%" stop-color="#15803d" />
      <stop offset="100%" stop-color="#052e16" />
    </radialGradient>
    <linearGradient id="goldBezelFav" x1="0%" y1="0%" x2="100%" y2="100%">
      <stop offset="0%" stop-color="#fef08a" />
      <stop offset="35%" stop-color="#eab308" />
      <stop offset="70%" stop-color="#ca8a04" />
      <stop offset="100%" stop-color="#854d0e" />
    </linearGradient>
    <linearGradient id="crownGoldFav" x1="0%" y1="0%" x2="100%" y2="100%">
      <stop offset="0%" stop-color="#fffbeb" />
      <stop offset="40%" stop-color="#fbbf24" />
      <stop offset="100%" stop-color="#92400e" />
    </linearGradient>
  </defs>

  <!-- Scaled Orb -->
  <circle cx="47" cy="54" r="43" fill="url(#goldBezelFav)" />
  <circle cx="47" cy="54" r="40.5" fill="url(#emeraldBodyFav)" />

  <!-- Spotify 3D Ceramic Arcs -->
  <g fill="#ffffff">
    <path d="M 25 39 C 34 31, 58 30, 72 41 C 74 42, 74 45, 72 47 C 70 49, 67 49, 65 47 C 54 38, 36 38, 29 44 C 27 46, 25 45, 23 43 C 21 41, 22 39, 25 39 Z" />
    <path d="M 27 51 C 36 44, 56 44, 68 53 C 70 54, 70 57, 68 59 C 66 61, 64 61, 62 59 C 52 52, 36 53, 30 58 C 28 60, 26 59, 24 57 C 22 55, 23 53, 27 51 Z" />
    <path d="M 29 64 C 36 58, 54 58, 64 66 C 66 67, 66 70, 64 72 C 62 74, 60 74, 58 72 C 50 66, 37 66, 31 70 C 29 72, 27 71, 25 69 C 23 67, 24 65, 29 64 Z" />
  </g>

  <!-- Specular Reflection -->
  <path d="M 22 25 C 38 15, 64 17, 78 31 C 72 27, 54 21, 32 29 Z" fill="#ffffff" opacity="0.45" />

  <!-- Mini Gold Crown -->
  <g transform="translate(76, 25) rotate(24) scale(0.24)">
    <path d="M -60 15 C -40 22, 40 22, 60 15 L 56 -24 L 28 -2 L 0 -44 L -28 -2 L -56 -24 Z" fill="url(#crownGoldFav)" stroke="#78350f" stroke-width="4" />
    <path d="M -62 14 C -40 22, 40 22, 62 14 L 60 26 C 40 34, -40 34, -60 26 Z" fill="url(#crownGoldFav)" stroke="#78350f" stroke-width="4" />
    <circle cx="0" cy="-48" r="8" fill="#fef08a" />
    <circle cx="-56" cy="-24" r="7" fill="#ffffff" />
    <circle cx="-28" cy="-2" r="7" fill="#e11d48" />
    <circle cx="0" cy="-44" r="7" fill="#ffffff" />
    <circle cx="28" cy="-2" r="7" fill="#10b981" />
    <circle cx="56" cy="-24" r="7" fill="#ffffff" />
  </g>
</svg>
